<svg width="25" height="24" viewBox="0 0 25 24" fill="none" xmlns="http://www.w3.org/2000/svg">
<mask id="mask0_74_522" style="mask-type:alpha" maskUnits="userSpaceOnUse" x="0" y="0" width="25" height="24">
<rect x="0.5" width="24" height="24" fill="#D9D9D9"/>
</mask>
<g mask="url(#mask0_74_522)">
<path d="M12.5 22C11.25 22 10.0792 21.7625 8.9875 21.2875C7.89583 20.8125 6.94583 20.1708 6.1375 19.3625C5.32917 18.5542 4.6875 17.6042 4.2125 16.5125C3.7375 15.4208 3.5 14.25 3.5 13C3.5 11.75 3.7375 10.5792 4.2125 9.4875C4.6875 8.39583 5.32917 7.44583 6.1375 6.6375C6.94583 5.82917 7.89583 5.1875 8.9875 4.7125C10.0792 4.2375 11.25 4 12.5 4H12.65L11.1 2.45L12.5 1L16.5 5L12.5 9L11.1 7.55L12.65 6H12.5C10.55 6 8.89583 6.67917 7.5375 8.0375C6.17917 9.39583 5.5 11.05 5.5 13C5.5 14.95 6.17917 16.6042 7.5375 17.9625C8.89583 19.3208 10.55 20 12.5 20C14.45 20 16.1042 19.3208 17.4625 17.9625C18.8208 16.6042 19.5 14.95 19.5 13H21.5C21.5 14.25 21.2625 15.4208 20.7875 16.5125C20.3125 17.6042 19.6708 18.5542 18.8625 19.3625C18.0542 20.1708 17.1042 20.8125 16.0125 21.2875C14.9208 21.7625 13.75 22 12.5 22Z" fill="#069CDF"/>
</g>
</svg>
