<svg width="1026" height="430" viewBox="0 0 1026 430" fill="none" xmlns="http://www.w3.org/2000/svg">
<path d="M3 427V3H1023V427H512.23H3Z" stroke="white" stroke-width="5" stroke-miterlimit="10"/>
<path d="M513 3V427" stroke="white" stroke-width="5" stroke-miterlimit="10"/>
<path d="M513.17 281.309C549.162 281.309 578.34 252.139 578.34 216.155C578.34 180.171 549.162 151 513.17 151C477.178 151 448 180.171 448 216.155C448 252.139 477.178 281.309 513.17 281.309Z" stroke="white" stroke-width="5" stroke-miterlimit="10"/>
<path d="M1022.61 111H922.489V321.299H1022.61V111Z" stroke="white" stroke-width="5" stroke-miterlimit="10"/>
<path d="M1022.61 160H969.336V272.956H1022.61V160Z" stroke="white" stroke-width="5" stroke-miterlimit="10"/>
<path d="M922.488 259.271C907.801 250.29 898 234.107 898 215.634C898 197.162 907.799 180.981 922.484 172" stroke="white" stroke-width="5" stroke-miterlimit="10"/>
<path d="M948.207 218.068C949.349 216.926 949.349 215.074 948.207 213.932C947.064 212.789 945.211 212.789 944.069 213.932C942.926 215.074 942.926 216.926 944.069 218.068C945.211 219.211 947.064 219.211 948.207 218.068Z" fill="white"/>
<path d="M997 428.83C997 414.565 1008.57 403 1022.84 403" stroke="white" stroke-width="5" stroke-miterlimit="10"/>
<path d="M997 3.08594C997 17.3503 1008.57 28.9157 1022.84 28.9157" stroke="white" stroke-width="5" stroke-miterlimit="10"/>
<path d="M103.357 111H3.23438V321.299H103.357V111Z" stroke="white" stroke-width="5" stroke-miterlimit="10"/>
<path d="M56.5103 159.671H3.23438V272.627H56.5103V159.671Z" stroke="white" stroke-width="5" stroke-miterlimit="10"/>
<path d="M103.67 259.786C118.356 250.805 128.156 234.622 128.156 216.149C128.156 197.676 118.357 181.496 103.672 172.515" stroke="white" stroke-width="5" stroke-miterlimit="10"/>
<path d="M82.2066 218.068C83.3492 216.926 83.3492 215.074 82.2066 213.932C81.064 212.789 79.2115 212.789 78.0689 213.932C76.9263 215.074 76.9263 216.926 78.0688 218.068C79.2114 219.211 81.064 219.211 82.2066 218.068Z" fill="white"/>
<path d="M28.8358 428.83C28.8358 414.565 17.269 403 3 403" stroke="white" stroke-width="5" stroke-miterlimit="10"/>
<path d="M28.8358 3.08594C28.8358 17.3503 17.269 28.9157 3 28.9157" stroke="white" stroke-width="5" stroke-miterlimit="10"/>
<path d="M513.17 220.588C515.542 220.588 517.465 218.666 517.465 216.294C517.465 213.923 515.542 212 513.17 212C510.798 212 508.875 213.923 508.875 216.294C508.875 218.666 510.798 220.588 513.17 220.588Z" fill="white"/>
</svg>
