<svg width="40" height="40" viewBox="0 0 40 40" fill="none" xmlns="http://www.w3.org/2000/svg">
<g clip-path="url(#clip0_1_1846)">
<path d="M35.1813 6.4126H4.81875C3.54125 6.41425 2.31654 6.92247 1.41321 7.8258C0.509873 8.72914 0.00165373 9.95384 0 11.2313L0 33.2751C0 33.358 0.032924 33.4375 0.0915291 33.4961C0.150134 33.5547 0.22962 33.5876 0.3125 33.5876H2.59688C2.67976 33.5876 2.75924 33.5547 2.81785 33.4961C2.87645 33.4375 2.90938 33.358 2.90938 33.2751V30.5532C3.9125 30.4532 4.94375 30.3595 6.05313 30.2751C8.34375 30.097 10.6938 29.9626 13.0375 29.8657H13.0531C15.4406 29.7813 17.7969 29.7345 20.0562 29.7345C22.3813 29.7345 24.7437 29.7845 27.0594 29.8782C29.4406 29.9688 31.7969 30.1126 34.0594 30.2907C35.1312 30.3751 36.125 30.4595 37.0906 30.5563V33.2782C37.0906 33.3611 37.1236 33.4406 37.1822 33.4992C37.2408 33.5578 37.3202 33.5907 37.4031 33.5907H39.6875C39.7704 33.5907 39.8499 33.5578 39.9085 33.4992C39.9671 33.4406 40 33.3611 40 33.2782V11.2313C39.9983 9.95384 39.4901 8.72914 38.5868 7.8258C37.6835 6.92247 36.4588 6.41425 35.1813 6.4126ZM26.0625 18.9126H20.3656V14.4532C22.3562 14.4532 24.3219 14.4345 26.2188 14.3907C26.1219 15.8813 26.0688 17.4032 26.0625 18.922V18.9126ZM26.2156 24.072C24.3125 24.0313 22.3531 24.0095 20.3656 24.0095V19.547H26.0625C26.0688 21.0532 26.1187 22.5751 26.2156 24.0813V24.072ZM20.3656 13.8282C20.3656 12.3251 20.3656 10.8188 20.3656 9.32197H26.7094C26.5156 10.7845 26.3656 12.2782 26.2562 13.7657C24.35 13.8095 22.3719 13.8282 20.3656 13.8282ZM26.8438 14.3751C28.7875 14.3345 30.75 14.272 32.6938 14.1845C32.5005 15.7555 32.3962 17.3361 32.3813 18.9188H26.6875C26.6938 17.4001 26.7469 15.8751 26.8438 14.3751ZM26.875 13.7501C26.9844 12.2657 27.1375 10.7813 27.3281 9.32197H33.5781C33.2406 10.722 32.9719 12.1345 32.775 13.5563C30.8187 13.647 28.8438 13.7095 26.875 13.7501ZM4.81875 9.32197H5.89375C6.23438 10.7345 6.5 12.1345 6.69375 13.5345C5.44375 13.4813 4.17188 13.4188 2.90938 13.347V11.2313C2.9102 10.7252 3.11163 10.24 3.46953 9.88213C3.82743 9.52423 4.31261 9.3228 4.81875 9.32197ZM2.90938 19.5438H7.09375C7.08262 21.134 6.97828 22.7222 6.78125 24.3001C5.5 24.3563 4.20312 24.4157 2.90625 24.4938L2.90938 19.5438ZM4.20312 18.9188H2.90938V13.972C4.2 14.0438 5.49688 14.1095 6.77813 14.1626C6.9744 15.7406 7.07874 17.3287 7.09063 18.9188H4.20312ZM6.53438 9.32197H12.7844C12.9625 10.8063 13.125 12.297 13.2188 13.7501C11.2594 13.7095 9.28125 13.647 7.32812 13.5626C7.1375 12.1657 6.875 10.7407 6.53438 9.32197ZM13.2594 14.3751C13.3594 15.9157 13.4125 17.4376 13.4187 18.9188H7.71875C7.70532 17.3392 7.60098 15.7615 7.40625 14.1938C9.35 14.2751 11.3125 14.3345 13.2594 14.3751ZM5.77812 29.6688C4.77187 29.7501 3.82813 29.8376 2.90938 29.9251V25.1188C4.17812 25.0438 5.44688 24.9813 6.7 24.9345C6.4827 26.5288 6.17491 28.1095 5.77812 29.6688ZM12.7656 29.2532C10.6406 29.3376 8.51562 29.4657 6.43437 29.622C6.82025 28.0665 7.12173 26.4913 7.3375 24.9032C9.3375 24.822 11.3125 24.7595 13.2219 24.7188C13.125 26.1938 12.9656 27.7157 12.7656 29.2532ZM7.41562 24.2782C7.61103 22.7074 7.71537 21.1267 7.72812 19.5438H13.4187C13.4187 21.0501 13.3594 22.5751 13.2625 24.0907C11.3687 24.1282 9.40312 24.1938 7.41562 24.2782ZM13.3969 29.2313C13.5969 27.697 13.7469 26.1782 13.85 24.7063C15.8125 24.6657 17.7875 24.6438 19.7406 24.6438C19.7406 26.1313 19.7406 27.6199 19.7406 29.1095C17.6906 29.1157 15.5594 29.1563 13.3969 29.2313ZM14.0437 18.9188C14.0437 17.4407 13.9844 15.922 13.8875 14.3907C15.8344 14.4313 17.8 14.4501 19.7406 14.4501V18.9188H14.0437ZM19.7406 19.5438V24.0188C17.8 24.0188 15.8406 24.0407 13.8906 24.0813C13.9844 22.572 14.0375 21.0532 14.0437 19.547L19.7406 19.5438ZM19.7406 13.8251C17.7844 13.8251 15.8063 13.8063 13.8469 13.7657C13.7406 12.3001 13.5938 10.8126 13.4 9.31885H19.7437C19.7437 10.8188 19.7437 12.3251 19.7406 13.8282V13.8251ZM20.3656 29.1063C20.3656 27.622 20.3656 26.1282 20.3656 24.6407C22.3656 24.6407 24.3406 24.6626 26.2562 24.7032C26.3625 26.2095 26.5187 27.7313 26.7156 29.2345C24.6062 29.1595 22.4781 29.1157 20.3687 29.1095L20.3656 29.1063ZM26.6875 19.547H32.3844C32.3987 21.1297 32.503 22.7104 32.6969 24.2813C30.7188 24.2032 28.7563 24.1407 26.8531 24.1001C26.7469 22.5813 26.6938 21.0563 26.6875 19.547ZM27.3469 29.2595C27.1469 27.7532 26.9937 26.2313 26.8844 24.722C28.8 24.7626 30.7719 24.8251 32.7656 24.9063C32.9828 26.4969 33.2875 28.0743 33.6781 29.6313C31.625 29.472 29.5 29.3501 27.3469 29.2595ZM37.0906 29.9251C36.2094 29.8407 35.3 29.7595 34.3344 29.6845C33.9364 28.1203 33.6234 26.5357 33.3969 24.9376C34.5812 24.9845 35.7938 25.0438 37.0875 25.1188L37.0906 29.9251ZM37.0906 24.4907C35.7687 24.4157 34.525 24.3563 33.3156 24.3032C33.1202 22.7241 33.0159 21.135 33.0031 19.5438H37.0844L37.0906 24.4907ZM37.0906 18.9188H33.0094C33.0226 17.3277 33.1269 15.7387 33.3219 14.1595C34.6937 14.1001 35.9344 14.0407 37.0719 13.972L37.0906 18.9188ZM37.0906 13.347C35.9594 13.4157 34.7469 13.4751 33.4094 13.5345C33.6075 12.1177 33.8766 10.7118 34.2156 9.32197H35.1813C35.6874 9.3228 36.1726 9.52423 36.5305 9.88213C36.8884 10.24 37.0898 10.7252 37.0906 11.2313V13.347Z" fill="white"/>
</g>
<defs>
<clipPath id="clip0_1_1846">
<rect width="40" height="40" fill="white"/>
</clipPath>
</defs>
</svg>
