<svg width="40" height="40" viewBox="0 0 40 40" fill="none" xmlns="http://www.w3.org/2000/svg">
<g clip-path="url(#clip0_1_1834)">
<path d="M13.2962 37.0026C13.6925 37.827 14.6819 38.1737 15.5061 37.7775C16.3301 37.3815 16.6774 36.3923 16.2812 35.5678L10.0158 22.5324L9.63123 20.7031L8.57179 15.6637L19.7602 15.5906C20.3519 15.5867 20.8283 15.104 20.8246 14.5121C20.8206 13.9228 20.3417 13.4478 19.7532 13.4478C19.7509 13.4478 19.7485 13.4478 19.7461 13.4478L6.93575 13.5314C6.50023 14.4384 5.66035 15.1388 4.60036 15.3533C4.38193 15.3975 4.15921 15.42 3.93817 15.42C3.26098 15.42 2.62217 15.2112 2.08882 14.8512L2.05722 14.8579C1.80884 14.9101 1.60053 15.0475 1.45555 15.2329C0.94833 15.773 -0.227911 17.5554 0.0388508 22.2981C0.0391723 22.3039 0.0402303 22.3094 0.0406455 22.3152C0.0419312 22.3331 0.0441009 22.351 0.0462973 22.3689C0.0483732 22.3858 0.0503554 22.4027 0.0531947 22.4193C0.056034 22.4359 0.0597305 22.4523 0.0633466 22.4688C0.0671904 22.4863 0.070994 22.5038 0.0756816 22.521C0.0798602 22.5364 0.0848826 22.5515 0.0897576 22.5667C0.0954497 22.5843 0.101128 22.602 0.107691 22.6192C0.113262 22.6338 0.11957 22.6482 0.125798 22.6626C0.133178 22.6797 0.140638 22.6967 0.148861 22.7133C0.155866 22.7274 0.1635 22.7413 0.171174 22.7551C0.180227 22.7715 0.189442 22.7877 0.199299 22.8035C0.207509 22.8167 0.216201 22.8296 0.225027 22.8425C0.236009 22.8585 0.2473 22.8742 0.259099 22.8896C0.26826 22.9015 0.277661 22.9132 0.287385 22.9248C0.30047 22.9404 0.31401 22.9555 0.327939 22.9704C0.333952 22.9768 0.339149 22.9836 0.345336 22.9899C0.349662 22.9943 0.354417 22.998 0.358796 23.0023C0.373328 23.0165 0.388422 23.0301 0.403716 23.0434C0.415315 23.0536 0.426779 23.0639 0.438699 23.0735C0.453043 23.085 0.468016 23.0957 0.482949 23.1064C0.496476 23.1162 0.509802 23.1263 0.523678 23.1354C0.537834 23.1446 0.552647 23.1528 0.567245 23.1614C0.582339 23.1703 0.597219 23.1796 0.612647 23.1877C0.62833 23.1959 0.644697 23.2028 0.660809 23.2103C0.675594 23.2171 0.690086 23.2246 0.705099 23.2307C0.731805 23.2415 0.759234 23.2509 0.786917 23.2596C0.791672 23.2611 0.796292 23.2631 0.801073 23.2645C0.866565 23.2842 0.934562 23.2976 1.00439 23.3044C1.03904 23.3077 1.07384 23.3095 1.10863 23.3095C1.1101 23.3095 1.11156 23.3092 1.11304 23.3092C1.13153 23.3092 1.1501 23.3088 1.16875 23.3077C1.17489 23.3073 1.18078 23.3062 1.18689 23.3058C1.20781 23.3042 1.22862 23.3018 1.24943 23.2991C1.26396 23.2971 1.27848 23.2953 1.29281 23.2929C1.31259 23.2894 1.33217 23.285 1.35179 23.2804C1.36654 23.277 1.38134 23.2738 1.39583 23.2698C1.41451 23.2646 1.43289 23.2583 1.45133 23.2521C1.46597 23.2472 1.48071 23.2425 1.49505 23.237C1.51288 23.2301 1.53032 23.2221 1.54784 23.2142C1.562 23.2079 1.5763 23.2018 1.59012 23.1948C1.607 23.1863 1.62343 23.1767 1.63993 23.1673C1.65366 23.1594 1.66751 23.1518 1.68085 23.1434C1.69626 23.1336 1.71115 23.1229 1.72616 23.1123C1.73988 23.1025 1.7537 23.093 1.76695 23.0826C1.78054 23.072 1.79364 23.0605 1.80682 23.0492C1.82051 23.0374 1.83417 23.0256 1.84723 23.0132C1.85157 23.009 1.85625 23.0055 1.86055 23.0013L2.43769 22.4328L6.30601 18.6221C6.72756 18.2069 6.73265 17.5285 6.3174 17.1069C5.90227 16.6855 5.22386 16.6803 4.80218 17.0955L1.87424 19.9798L1.79324 19.6272L4.58598 16.8761C4.84573 16.6202 5.18957 16.4794 5.55409 16.4794C5.92646 16.4794 6.27553 16.6255 6.53686 16.8907C6.79543 17.1532 6.93629 17.5007 6.93354 17.8692C6.9308 18.2376 6.78471 18.583 6.5222 18.8416L2.64083 22.6651L3.01034 24.4227C3.1315 24.3118 3.26675 24.213 3.41867 24.1329C4.37662 23.6281 5.56676 23.9968 6.07154 24.9548L6.32515 25.4361L7.06745 25.28L7.60734 25.1665L13.2962 37.0026Z" fill="white"/>
<path d="M6.89477 11.5001C6.56453 9.86882 4.97441 8.81427 3.34333 9.14449C1.71198 9.47476 0.657519 11.0647 0.987764 12.6959C1.31801 14.3272 2.90785 15.3818 4.5392 15.0515C6.17029 14.7213 7.22502 13.1313 6.89477 11.5001ZM3.80252 12.2876C3.80252 12.2876 5.15241 11.9337 5.29333 12.2416C5.43424 12.5494 5.6745 13.4443 5.52972 13.486C5.38493 13.5276 5.33243 13.3453 5.2359 13.3731C5.13937 13.4009 4.67258 13.454 4.17928 13.5961C3.68597 13.7382 3.26242 13.9414 3.1659 13.9692C3.06937 13.997 3.12187 14.1793 2.97708 14.221C2.83229 14.2627 2.55986 13.3772 2.51548 13.0415C2.47108 12.7059 3.80252 12.2876 3.80252 12.2876Z" fill="white"/>
<path d="M4.22044 38.5324C5.60288 38.3083 6.5419 37.0059 6.3178 35.6235C6.09369 34.241 4.79133 33.302 3.40889 33.5261C2.02645 33.7502 1.08743 35.0526 1.31154 36.435C1.53564 37.8175 2.838 38.7565 4.22044 38.5324Z" fill="white"/>
<path d="M3.56221 24.4054C2.75318 24.8317 2.44257 25.833 2.869 26.6423L6.56094 33.6486C6.98739 34.4579 7.98893 34.7678 8.79796 34.3415C9.60678 33.9153 9.91739 32.914 9.49094 32.1047L5.799 25.0983C5.37257 24.2891 4.37103 23.9792 3.56221 24.4054Z" fill="white"/>
<path d="M38.9368 17.0971L33.5401 17.0562L30.7294 14.2168C30.6671 14.1539 30.5984 14.1014 30.5261 14.0572C30.4766 14.025 30.4244 13.9958 30.3682 13.9718L30.0464 13.8343C29.2913 14.0982 28.4396 14.0925 27.6478 13.7542C26.7082 13.3528 26.0491 12.5666 25.7744 11.6576L22.3036 8.6581L21.8369 3.93053C21.7788 3.34171 21.2559 2.91154 20.6654 2.96961C20.0766 3.02768 19.6463 3.55215 19.7045 4.14111L20.2131 9.2944C20.2401 9.56762 20.371 9.82018 20.5788 9.99976L24.0363 12.9877L20.9036 20.3201L17.0352 20.0188C16.4928 19.976 15.964 20.2063 15.6247 20.632L11.9272 25.2722L13.5058 28.5565L17.6483 23.3577L22.4609 23.7327L19.2831 26.455C18.8355 26.8383 18.6279 27.4324 18.7394 28.011L20.3317 36.2828C20.4829 37.0679 21.1701 37.6137 21.941 37.6136C22.0438 37.6136 22.1483 37.6039 22.2529 37.5837C23.1427 37.4124 23.7251 36.5523 23.5539 35.6625L22.1418 28.3267L26.9014 24.2493C26.9261 24.2282 26.9482 24.2053 26.9713 24.1831C27.1175 24.0768 27.2385 23.9319 27.3146 23.7536L30.2812 16.8101L32.3283 18.878C32.5276 19.0793 32.7984 19.1935 33.0817 19.1957L38.9206 19.2401H38.9288C39.5167 19.2401 39.9957 18.7657 40.0001 18.1767C40.0045 17.585 39.5285 17.1017 38.9368 17.0971Z" fill="white"/>
<path d="M27.7687 13.4711C29.2994 14.125 31.0699 13.4144 31.7238 11.8839C32.3776 10.3535 31.6672 8.58281 30.1366 7.92887C28.6062 7.27502 26.8354 7.98563 26.1816 9.51605C25.5277 11.0465 26.2384 12.8172 27.7687 13.4711ZM28.0007 10.4338C28.3668 10.4176 28.6866 10.9254 28.7151 11.5681C28.7436 12.2108 28.4699 12.7449 28.1038 12.7612C27.7377 12.7774 27.4179 12.2695 27.3894 11.6269C27.3609 10.9842 27.6346 10.45 28.0007 10.4338Z" fill="white"/>
<path d="M26.8088 6.84922C26.4545 7.02359 26.3321 7.40008 26.3271 7.416C26.3048 7.4863 26.3437 7.56109 26.414 7.58363C26.4188 7.5852 26.4236 7.58644 26.4284 7.58742C26.4942 7.60073 26.5611 7.5626 26.5823 7.49725C26.5832 7.49442 26.6779 7.21093 26.9292 7.08854C27.0901 7.01013 27.2864 7.01212 27.5126 7.09481C27.5819 7.12004 27.6589 7.08438 27.6843 7.01491C27.7097 6.94537 27.6739 6.86855 27.6044 6.84317C27.3058 6.73422 27.0382 6.73623 26.8088 6.84922Z" fill="white"/>
<path d="M26.5702 6.22207C26.0445 6.45144 25.8408 6.98002 25.8323 7.00246C25.8063 7.07153 25.8413 7.14845 25.9103 7.17462C25.9172 7.17723 25.9243 7.17924 25.9313 7.18067C25.9944 7.19342 26.0592 7.15903 26.0829 7.09703C26.0846 7.09257 26.2583 6.64904 26.6798 6.46652C26.9558 6.34693 27.282 6.36232 27.6497 6.51298C27.7184 6.54067 27.7964 6.50808 27.8244 6.43968C27.8524 6.37121 27.8196 6.29306 27.7511 6.26501C27.3129 6.08587 26.9156 6.07133 26.5702 6.22207Z" fill="white"/>
<path d="M32.2415 6.77977L31.5144 4.52271L30.7544 6.89474L31.1371 7.01742L31.5155 5.83637L32.062 7.53286L33.0673 6.51584L32.9703 8.12744L34.882 7.40757L33.8085 9.05109L35.5788 9.45354L33.8111 10.3598L35.1774 11.4425L33.0635 11.418L33.369 12.6987L32.4901 12.1443L32.2759 12.4841L33.9887 13.5646L33.5738 11.8258L36.3485 11.8579L34.5498 10.4325L36.7457 9.30679L34.4606 8.78741L35.8904 6.5985L33.4087 7.53313L33.5327 5.47343L32.2415 6.77977Z" fill="white"/>
<path d="M27.2737 4.19274C27.2078 4.37756 27.2735 4.57266 27.5091 4.6566C27.726 4.73392 27.9067 4.62135 27.9709 4.44122C28.0367 4.25659 27.9585 4.0674 27.7321 3.98674C27.5291 3.91439 27.3345 4.022 27.2737 4.19274Z" fill="white"/>
<path d="M28.6478 1.46196C28.4309 1.38464 28.3176 1.46896 28.2715 1.59838L28.0856 2.11997L27.644 3.67957L28.0272 3.81614L28.6718 2.3289L28.8544 1.81652C28.9054 1.67338 28.8694 1.54095 28.6478 1.46196Z" fill="white"/>
<path d="M29.7698 3.24581C29.4206 3.35036 29.2342 3.43488 29.133 3.83573L29.0469 4.1797L29.5316 4.35247L29.6106 4.13085C29.7159 3.8354 29.7989 3.79214 30.145 3.69703C30.5659 3.5816 30.7821 3.39849 30.9055 3.05232C31.019 2.73377 30.937 2.27799 30.3091 2.05419C29.9905 1.94066 29.619 1.91748 29.3984 1.93773L29.1598 2.60714L29.6499 2.8233L29.7453 2.55564C29.7683 2.49103 29.8046 2.46227 29.8494 2.46785C29.9161 2.47068 29.9899 2.49698 30.0685 2.52497C30.2484 2.5891 30.3326 2.71799 30.2668 2.90282C30.1812 3.14285 30.021 3.16893 29.7698 3.24581Z" fill="white"/>
<path d="M28.7553 4.72066C28.6895 4.90547 28.7614 5.0975 28.9877 5.17816C29.2046 5.25548 29.3869 5.1384 29.4478 4.96748C29.5152 4.77834 29.4352 4.5936 29.2138 4.51467C29.0106 4.44225 28.8195 4.54072 28.7553 4.72066Z" fill="white"/>
<path d="M10.9385 9.0254C10.9385 9.0254 19.6862 12.794 19.7589 12.9006C19.8315 13.0071 19.8786 12.6721 19.8786 12.6721L11.5414 8.72461L10.9385 9.0254Z" fill="white"/>
<path d="M19.8142 16.1677C19.719 16.2547 10.3398 17.9151 10.3398 17.9151L10.8576 18.3462L19.8782 16.4175C19.8782 16.4175 19.9093 16.0806 19.8142 16.1677Z" fill="white"/>
<path d="M28.8999 24.4726C29.0783 24.1204 28.9499 23.7459 28.9443 23.7301C28.9198 23.6606 28.8438 23.6242 28.7741 23.6483C28.7694 23.65 28.7648 23.6519 28.7603 23.654C28.6997 23.6829 28.6692 23.7535 28.6915 23.8186C28.6925 23.8214 28.7872 24.1048 28.6598 24.3537C28.5783 24.5131 28.4202 24.6295 28.1898 24.6993C28.1192 24.7208 28.0791 24.7956 28.1005 24.8663C28.122 24.9371 28.1968 24.977 28.2676 24.9556C28.5717 24.8632 28.7844 24.7008 28.8999 24.4726Z" fill="white"/>
<path d="M29.4227 23.6726C29.4156 23.6747 29.4087 23.6773 29.4022 23.6804C29.3442 23.7081 29.313 23.7746 29.3313 23.8383C29.3326 23.8429 29.4604 24.3018 29.2332 24.701C29.0844 24.9624 28.8144 25.1462 28.43 25.2467C28.3585 25.2658 28.3158 25.3388 28.3345 25.4103C28.3532 25.4818 28.4264 25.5246 28.498 25.5059C28.9559 25.3857 29.2822 25.1586 29.4676 24.8305C29.75 24.3313 29.5952 23.7863 29.5885 23.7633C29.5677 23.6925 29.4936 23.652 29.4227 23.6726Z" fill="white"/>
<path d="M16.3349 18.872C16.0237 18.8074 15.7592 18.8482 15.5486 18.9933C15.2234 19.2171 15.1568 19.6074 15.1541 19.6239C15.1423 19.6966 15.1916 19.765 15.2644 19.7771C15.2693 19.778 15.2743 19.7785 15.2792 19.7788C15.3463 19.7824 15.4069 19.735 15.4184 19.6673C15.4189 19.6643 15.4715 19.3701 15.7024 19.2126C15.8503 19.1117 16.0448 19.0852 16.2805 19.1343C16.3528 19.1492 16.4239 19.1027 16.4389 19.0303C16.4539 18.9579 16.4074 18.887 16.3349 18.872Z" fill="white"/>
<path d="M16.4941 18.4409C16.5119 18.3691 16.4681 18.2965 16.3963 18.2787C15.9367 18.1649 15.5416 18.2081 15.2217 18.4073C14.7348 18.7104 14.6097 19.2629 14.6046 19.2864C14.589 19.3585 14.6347 19.4295 14.7067 19.4454C14.714 19.447 14.7212 19.448 14.7284 19.4484C14.7926 19.4518 14.8518 19.4084 14.8663 19.3437C14.8674 19.339 14.9749 18.875 15.3655 18.6333C15.6213 18.475 15.9463 18.4429 16.3319 18.5387C16.4039 18.5562 16.4763 18.5126 16.4941 18.4409Z" fill="white"/>
</g>
<defs>
<clipPath id="clip0_1_1834">
<rect width="40" height="40" fill="white"/>
</clipPath>
</defs>
</svg>
