<svg width="40" height="40" viewBox="0 0 40 40" fill="none" xmlns="http://www.w3.org/2000/svg">
<g clip-path="url(#clip0_1_1825)">
<path d="M8.125 19.375H9.375V20.625H8.125V19.375Z" fill="white"/>
<path d="M0.625 19.375H6.875V20.625H0.625V19.375Z" fill="white"/>
<path d="M1.875 16.875H3.125V18.125H1.875V16.875Z" fill="white"/>
<path d="M4.375 16.875H9.375V18.125H4.375V16.875Z" fill="white"/>
<path d="M1.875 21.875H3.125V23.125H1.875V21.875Z" fill="white"/>
<path d="M4.375 21.875H9.375V23.125H4.375V21.875Z" fill="white"/>
<path d="M9.375 24.375H10.625V25.625H9.375V24.375Z" fill="white"/>
<path d="M0.625 24.375H8.125V25.625H0.625V24.375Z" fill="white"/>
<path d="M9.375 14.375H10.625V15.625H9.375V14.375Z" fill="white"/>
<path d="M0.625 14.375H8.125V15.625H0.625V14.375Z" fill="white"/>
<path d="M39.3506 36.0531L33.9019 3.36188C33.7588 2.5 33.0206 1.875 32.1475 1.875H24.26C24.0013 1.14937 23.3138 0.625 22.5 0.625H21.25C20.2163 0.625 19.375 1.46625 19.375 2.5V13.3919C18.7681 13.2194 18.1419 13.125 17.5 13.125C13.7094 13.125 10.625 16.2094 10.625 20C10.625 23.7906 13.7094 26.875 17.5 26.875C18.1419 26.875 18.7681 26.7806 19.375 26.6081V37.5C19.375 38.5337 20.2163 39.375 21.25 39.375H22.5C23.3138 39.375 24.0013 38.8506 24.26 38.125H37.5962C38.5769 38.125 39.375 37.3269 39.375 36.3456C39.375 36.2481 39.3662 36.1506 39.3506 36.0531ZM17.5 14.375C17.7256 14.375 17.9481 14.3919 18.1694 14.4181L17.5 14.8619L16.8319 14.4187C17.0512 14.3925 17.2737 14.375 17.5 14.375ZM15.2313 14.8569L16.875 15.9469V17.1781L15.4731 18.1081L14.3025 17.4325L14.1806 15.4694C14.5069 15.2294 14.8575 15.0225 15.2313 14.8569ZM13.0006 16.6381L13.05 17.4306L12.3287 17.7894C12.5056 17.3769 12.735 16.9931 13.0006 16.6381ZM13.0006 23.3619C12.735 23.0069 12.5056 22.6231 12.3287 22.2106L13.05 22.5694L13.0006 23.3619ZM11.9088 20.6056C11.8875 20.4063 11.875 20.2044 11.875 20C11.875 19.7956 11.8875 19.5938 11.9088 19.3944L13.6775 18.5144L15 19.2781V20.7212L13.6775 21.485L11.9088 20.6056ZM14.1806 24.5312L14.3025 22.5681L15.4619 21.8987L16.875 22.8356V24.0531L15.2313 25.1431C14.8575 24.9775 14.5069 24.7706 14.1806 24.5312ZM17.5 25.625C17.2737 25.625 17.0512 25.6075 16.8319 25.5812L17.5 25.1381L18.1694 25.5819C17.9481 25.6081 17.7256 25.625 17.5 25.625ZM19.375 24.8819L18.125 24.0531V22.8875L19.375 22.2656V24.8819ZM19.375 20.8694L17.5444 21.78L16.25 20.9212V19.0919L17.5444 18.2331L19.375 19.1437V20.8694ZM19.375 17.7475L18.125 17.1256V15.9462L19.375 15.1175V17.7475ZM23.125 37.5C23.125 37.8444 22.845 38.125 22.5 38.125H21.25C20.905 38.125 20.625 37.8444 20.625 37.5V2.5C20.625 2.15562 20.905 1.875 21.25 1.875H22.5C22.845 1.875 23.125 2.15562 23.125 2.5V37.5ZM37.4381 32.1787L36.5088 31.25L37.1725 30.5863L37.4381 32.1787ZM36.92 29.0713L35.625 30.3662L33.3838 28.125L35.625 25.8838L36.5413 26.8L36.92 29.0713ZM31.6162 15.625L29.375 17.8663L27.1338 15.625L29.375 13.3837L31.6162 15.625ZM27.1338 9.375L29.375 7.13375L31.6162 9.375L29.375 11.6163L27.1338 9.375ZM30.2588 18.75L32.5 16.5087L34.7412 18.75L32.5 20.9912L30.2588 18.75ZM34.7412 25L32.5 27.2412L30.2588 25L32.5 22.7588L34.7412 25ZM31.6162 21.875L29.375 24.1162L27.1338 21.875L29.375 19.6337L31.6162 21.875ZM31.6162 28.125L29.375 30.3662L27.1338 28.125L29.375 25.8838L31.6162 28.125ZM32.5 29.0088L34.7412 31.25L32.5 33.4906L30.2588 31.25L32.5 29.0088ZM36.1875 24.6787L33.3838 21.875L35.3862 19.8725L36.1875 24.6787ZM34.9375 17.1787L33.3838 15.625L34.4937 14.515L34.9375 17.1787ZM34.0413 11.7994L34.2412 13L32.5 14.7413L30.2588 12.5L32.5 10.2587L34.0413 11.7994ZM32.7081 3.80062L33.6881 9.67812L30.2588 6.25L32.7081 3.80062ZM31.6162 3.125L29.375 5.36625L27.1338 3.125H31.6162ZM24.375 3.125H25.3662L28.4912 6.25L26.25 8.49125L24.375 6.61625V3.125ZM24.375 8.38375L25.3662 9.375L24.375 10.3663V8.38375ZM24.375 12.1337L26.25 10.2587L28.4912 12.5L26.25 14.7413L24.375 12.8663V12.1337ZM24.375 14.6337L25.3662 15.625L24.375 16.6163V14.6337ZM24.375 18.3837L26.25 16.5087L28.4912 18.75L26.25 20.9912L24.375 19.1163V18.3837ZM24.375 20.8838L25.3662 21.875L24.375 22.8662V20.8838ZM24.375 24.6338L26.25 22.7588L28.4912 25L26.25 27.2412L24.375 25.3662V24.6338ZM24.375 27.1338L25.3662 28.125L24.375 29.1162V27.1338ZM24.375 30.8838L26.25 29.0088L28.4912 31.25L26.25 33.4912L24.375 31.6162V30.8838ZM24.375 33.3838L25.3662 34.375L24.375 35.3662V33.3838ZM24.6338 36.875L26.25 35.2588L27.8662 36.875H24.6338ZM27.1338 34.375L29.375 32.1338L31.6162 34.375L29.375 36.6162L27.1338 34.375ZM30.8838 36.875L32.5 35.2588L34.1169 36.875H30.8838ZM37.5956 36.875H35.8844L33.3838 34.3744L35.625 32.1338L37.7913 34.3L38.1175 36.2575C38.1225 36.2869 38.125 36.3162 38.125 36.3456C38.125 36.6375 37.8875 36.875 37.5956 36.875Z" fill="white"/>
</g>
<defs>
<clipPath id="clip0_1_1825">
<rect width="40" height="40" fill="white"/>
</clipPath>
</defs>
</svg>
