<svg width="40" height="40" viewBox="0 0 40 40" fill="none" xmlns="http://www.w3.org/2000/svg">
<g clip-path="url(#clip0_1_1840)">
<path d="M21.8333 32.9309C20.8284 32.9309 19.8302 33.3572 19.131 34.1848C17.185 36.4895 18.8524 40.0002 21.8296 40.0002C22.8346 40.0002 23.8328 39.5738 24.5319 38.7459C26.4801 36.4388 24.8075 32.9306 21.8333 32.9309Z" fill="white"/>
<path d="M30.3243 13.7973C29.8101 13.2245 26.3806 9.40224 25.8676 8.83066C25.6201 8.55448 25.2838 8.37352 24.9167 8.31859C16.6503 7.07411 21.8257 7.83886 16.8636 7.05641C16.4452 6.98835 16.0171 7.08906 15.6735 7.33686L9.98296 11.4371C9.57373 11.7322 9.32807 12.2031 9.32044 12.7075L9.21943 19.384C9.206 20.2654 9.90972 20.9904 10.7907 21.0039H10.8155C11.6855 21.0039 12.3972 20.3053 12.4106 19.4322L12.4994 13.5574L16.2591 10.8484L16.6433 20.5534L13.1277 26.5967C12.6315 27.4494 12.8644 28.5391 13.6654 29.1147L18.7419 32.7624C19.5927 32.0211 20.6859 31.6058 21.833 31.6058C22.0271 31.6058 22.2199 31.6183 22.4107 31.6421C22.4034 31.0549 22.1269 30.4788 21.6136 30.1098L17.3122 27.0194L19.6507 22.9997L21.8238 22.9136L24.607 32.4489C26.3733 33.7386 26.9705 36.0213 26.2155 37.9609L26.4084 38.621C26.7038 39.6335 27.7652 40.2198 28.7829 39.9228C29.7982 39.6265 30.3811 38.5633 30.0848 37.548L25.1108 20.5058L25.1001 20.5122L24.4858 20.8952C23.2371 21.6737 21.598 21.2889 20.8226 20.0453C20.0459 18.799 20.4265 17.1587 21.6728 16.3821L24.8581 14.3963L24.7788 12.396C25.2289 12.8977 26.232 14.0155 26.6794 14.5141L22.2352 17.2845C21.4872 17.7508 21.259 18.7349 21.7253 19.4829C22.191 20.23 23.1748 20.4594 23.9234 19.9928L29.9804 16.217C30.8224 15.6924 30.9856 14.5343 30.3243 13.7973Z" fill="white"/>
<path d="M23.5338 3.17612C23.4614 1.3509 21.9234 -0.0699654 20.0985 0.00266493C18.2736 0.0749901 16.8527 1.61304 16.925 3.43796C16.9973 5.26287 18.5354 6.68374 20.3603 6.61141C22.1852 6.53909 23.6061 5.00103 23.5338 3.17612Z" fill="white"/>
</g>
<defs>
<clipPath id="clip0_1_1840">
<rect width="40" height="40" fill="white"/>
</clipPath>
</defs>
</svg>
