<svg width="40" height="40" viewBox="0 0 40 40" fill="none" xmlns="http://www.w3.org/2000/svg">
<mask id="mask0_1_1852" style="mask-type:alpha" maskUnits="userSpaceOnUse" x="0" y="0" width="40" height="40">
<rect width="40" height="40" fill="#D9D9D9"/>
</mask>
<g mask="url(#mask0_1_1852)">
<path d="M20.0832 33.3334C16.3609 33.3334 13.1943 32.0417 10.5832 29.4584C7.97206 26.8751 6.6665 23.7223 6.6665 20.0001V19.7084L3.99984 22.3751L1.6665 20.0417L8.33317 13.3751L14.9998 20.0417L12.6665 22.3751L9.99984 19.7084V20.0001C9.99984 22.7779 10.979 25.139 12.9373 27.0834C14.8957 29.0279 17.2776 30.0001 20.0832 30.0001C20.8054 30.0001 21.5137 29.9167 22.2082 29.7501C22.9026 29.5834 23.5832 29.3334 24.2498 29.0001L26.7498 31.5001C25.6943 32.1112 24.6109 32.5695 23.4998 32.8751C22.3887 33.1806 21.2498 33.3334 20.0832 33.3334ZM31.6665 26.6251L24.9998 19.9584L27.3332 17.6251L29.9998 20.2917V20.0001C29.9998 17.2223 29.0207 14.8612 27.0623 12.9167C25.104 10.9723 22.7221 10.0001 19.9165 10.0001C19.1943 10.0001 18.4859 10.0834 17.7915 10.2501C17.0971 10.4167 16.4165 10.6667 15.7498 11.0001L13.2498 8.50008C14.3054 7.88897 15.3887 7.43064 16.4998 7.12508C17.6109 6.81953 18.7498 6.66675 19.9165 6.66675C23.6387 6.66675 26.8054 7.95841 29.4165 10.5417C32.0276 13.1251 33.3332 16.2779 33.3332 20.0001V20.2917L35.9998 17.6251L38.3332 19.9584L31.6665 26.6251Z" fill="white"/>
</g>
</svg>
