<svg width="40" height="40" viewBox="0 0 40 40" fill="none" xmlns="http://www.w3.org/2000/svg">
<path d="M20.4743 11.5682C21.5835 10.4878 21.6042 8.7128 20.5252 7.60792C19.4448 6.50001 17.6738 6.47538 16.5674 7.55581C15.4596 8.63591 15.4349 10.4072 16.5166 11.5134C17.593 12.6224 19.368 12.6445 20.4743 11.5682Z" fill="white"/>
<path d="M17.1235 30.3158C16.0172 31.3935 15.9936 33.1659 17.0727 34.2725C18.149 35.3813 19.9241 35.4048 21.033 34.3269C22.1395 33.2467 22.1616 31.4717 21.0813 30.3666C20.001 29.2576 18.2313 29.2355 17.1235 30.3158Z" fill="white"/>
<path d="M21.737 20.1432L17.688 18.9832L17.0767 17.0023C17.89 16.0653 17.8757 14.6513 16.9933 13.7456L16.2751 13.0094C15.9533 12.6772 15.4034 12.3983 15.1402 12.3317L9.20675 10.8096C8.66589 10.6688 8.08996 10.8409 7.71193 11.2538L4.14122 15.1454C3.57557 15.7631 3.61593 16.7235 4.23239 17.289C4.523 17.5562 4.89051 17.6891 5.25794 17.6891C5.66842 17.6891 6.07637 17.5223 6.3762 17.1978L9.33176 13.9737L11.31 14.4808L7.08512 18.5975C6.43629 19.1528 5.84985 20.0336 6.22241 20.9198L7.89189 24.8921L0.983769 28.4743C0.09097 28.937 -0.258191 30.0368 0.204394 30.9283C0.665675 31.8145 1.75899 32.169 2.65823 31.7063L11.0587 27.351C11.2997 27.226 11.4876 27.0473 11.6451 26.8454L12.5626 27.8607L11.2203 32.8258C10.9584 33.7942 11.5329 34.795 12.5027 35.0569C13.4828 35.3189 14.4743 34.7363 14.7337 33.7745L16.3353 27.8514C16.4957 27.2546 16.3445 26.6172 15.9287 26.1586L12.0817 21.897L14.6425 19.4015L15.0322 20.6614C15.1833 21.1517 15.5703 21.5322 16.063 21.6729L20.9017 23.0581C21.7097 23.2902 22.5476 22.8197 22.7771 22.0183C23.0077 21.2129 22.5424 20.3738 21.737 20.1432Z" fill="white"/>
<path d="M39.9112 18.6327L38.1376 13.6572C37.9497 13.1307 37.4872 12.75 36.9346 12.6667L30.876 11.7558C30.5996 11.7153 29.9924 11.7598 29.5676 11.9383L28.6177 12.3371C27.4539 12.8282 26.8857 14.1251 27.2729 15.3057L25.9395 16.8905L21.7575 16.3835C20.9065 16.2832 20.169 16.8749 20.0687 17.7062C19.9684 18.5389 20.56 19.2937 21.3915 19.394L26.3892 20C26.887 20.0624 27.3954 19.8695 27.7341 19.4708L28.5798 18.4633L30.1033 22.0823L27.5882 23.8795C27.3456 24.0541 27.149 24.2847 27.016 24.5507L23.0725 32.491C22.6255 33.3902 22.9929 34.4836 23.8935 34.9306C24.7901 35.3738 25.8835 35.0153 26.3345 34.1097L29.4047 27.9245L34.8287 34.4627C35.4673 35.2303 36.6128 35.3437 37.3921 34.7014C38.1661 34.0588 38.273 32.9119 37.6306 32.1379L32.6615 26.1484L35.7463 23.1381C36.4186 22.4825 36.2467 21.5325 35.8817 20.7231L33.5686 15.2291L35.5859 15.5313L37.0546 19.6507C37.3374 20.4457 38.2118 20.8522 38.9926 20.5695C39.7808 20.2892 40.1926 19.4213 39.9112 18.6327Z" fill="white"/>
<path d="M29.9274 10.2597C31.3532 9.66162 32.0204 8.02084 31.4209 6.59395C30.8214 5.1708 29.1806 4.49947 27.7564 5.10043C26.3307 5.69976 25.6595 7.34185 26.259 8.76883C26.8611 10.1918 28.5029 10.8631 29.9274 10.2597Z" fill="white"/>
</svg>
