<svg width="40" height="40" viewBox="0 0 40 40" fill="none" xmlns="http://www.w3.org/2000/svg">
<g clip-path="url(#clip0_1_1849)">
<path d="M15.3099 20.0304C15.3099 19.5988 14.9601 19.249 14.5286 19.249H0.777208C-0.25946 19.2903 -0.258679 20.7708 0.777208 20.8117H14.5286C14.9601 20.8117 15.3099 20.4619 15.3099 20.0304Z" fill="white"/>
<path d="M16.0914 26.2808H4.37145C3.33478 26.322 3.33556 27.8026 4.37145 27.8434H16.0914C17.1281 27.8022 17.1273 26.3217 16.0914 26.2808Z" fill="white"/>
<path d="M4.37145 13.7797H16.0914C17.1281 13.7384 17.1273 12.2579 16.0914 12.217H4.37145C3.33478 12.2584 3.33556 13.7388 4.37145 13.7797Z" fill="white"/>
<path d="M30.8514 16.5029C30.7102 16.2675 30.4559 16.1235 30.1814 16.1235H26.3782C26.1037 16.1235 25.8494 16.2675 25.7082 16.5029L23.833 19.6282C23.6846 19.8756 23.6846 20.1847 23.833 20.4322L25.7082 23.5575C25.8494 23.7928 26.1037 23.9368 26.3782 23.9368H30.1814C30.4559 23.9368 30.7102 23.7928 30.8514 23.5575L32.7266 20.4322C32.875 20.1847 32.875 19.8756 32.7266 19.6282L30.8514 16.5029Z" fill="white"/>
<path d="M28.28 8.3103C21.8176 8.3103 16.5601 13.5679 16.5601 20.0302C17.2038 35.5784 39.3585 35.5739 39.9999 20.0302C39.9999 13.5679 34.7425 8.3103 28.28 8.3103ZM35.3828 27.2836L32.1866 26.7968L31.0074 29.8151C29.2851 30.3089 27.2749 30.3089 25.5526 29.8151L24.3734 26.7968L21.1772 27.2836C19.8733 26.0064 18.9106 24.382 18.442 22.5612L20.4667 20.0302L18.442 17.4993C18.9107 15.6785 19.8733 14.0541 21.1772 12.7769L24.3734 13.2637L25.5526 10.2453C27.2749 9.75154 29.2851 9.75154 31.0074 10.2453L32.1866 13.2637L35.3828 12.7769C36.6867 14.0541 37.6494 15.6785 38.118 17.4993L36.0933 20.0302L38.118 22.5612C37.6494 24.382 36.6867 26.0064 35.3828 27.2836Z" fill="white"/>
</g>
<defs>
<clipPath id="clip0_1_1849">
<rect width="40" height="40" fill="white"/>
</clipPath>
</defs>
</svg>
