<svg width="40" height="40" viewBox="0 0 40 40" fill="none" xmlns="http://www.w3.org/2000/svg">
<g clip-path="url(#clip0_1_1843)">
<path d="M34.1248 27.8611L26.884 21.5967C26.6768 21.4173 26.4366 21.28 26.1769 21.1924L18.6769 18.6598L18.6849 12.8025L22.3274 14.2359C22.8908 14.4578 23.5228 14.3733 24.0056 14.0242L29.2338 10.2434C30.0227 9.67268 30.1997 8.571 29.6293 7.78212C29.0589 6.99355 27.957 6.81655 27.1681 7.38692L22.7211 10.6028L18.5762 8.97169C18.4709 8.63814 18.2952 8.33602 18.0663 8.08272C16.574 8.53438 14.9883 8.22798 13.7935 7.29049H12.6293C11.9787 7.29049 11.3323 7.39822 10.7168 7.60879L3.9834 9.91316C3.49817 10.0789 3.10908 10.4472 2.91773 10.923L0.444908 17.0628C0.0857179 17.9551 0.479087 18.9936 1.36135 19.3763C2.28084 19.7752 3.33186 19.3302 3.69928 18.4184L5.88586 12.9887L9.53971 11.7418L9.52597 22.0969L13.2842 30.6705L11.0296 37.1933C10.6478 38.2974 11.2334 39.5016 12.3375 39.8834C13.4417 40.2649 14.6459 39.6789 15.0273 38.5751L17.5414 31.3025C17.7086 30.8188 17.6949 30.2912 17.5026 29.8169L14.3758 22.1033L15.6581 22.1052L24.4304 25.0675L31.3572 31.0602C32.2407 31.8247 33.5764 31.7279 34.3406 30.8447C35.1048 29.9613 35.0083 28.6255 34.1248 27.8611Z" fill="white"/>
<path d="M39.552 18.9652C38.8873 17.1049 36.8402 16.1357 34.9799 16.8003C33.1196 17.465 32.1503 19.5121 32.815 21.3725C33.4797 23.2328 35.5268 24.202 37.3871 23.5374C39.2474 22.8724 40.2167 20.8256 39.552 18.9652Z" fill="white"/>
<path d="M16.6954 7.15847C18.8857 7.15847 20.5708 5.21024 20.237 3.03587C19.9654 1.26647 18.4407 0 16.7043 0C14.5137 0 12.8286 1.94854 13.1624 4.1226C13.434 5.892 14.9587 7.15847 16.6954 7.15847Z" fill="white"/>
</g>
<defs>
<clipPath id="clip0_1_1843">
<rect width="40" height="40" fill="white"/>
</clipPath>
</defs>
</svg>
