<svg width="40" height="40" viewBox="0 0 40 40" fill="none" xmlns="http://www.w3.org/2000/svg">
<path d="M25 1.25H11.25C10.2145 1.25 9.375 2.08947 9.375 3.125V21.875C9.375 22.9105 10.2145 23.75 11.25 23.75H25C26.0355 23.75 26.875 22.9105 26.875 21.875V3.125C26.875 2.08947 26.0355 1.25 25 1.25Z" fill="#E84747"/>
<path d="M25 3.125H13.125C12.0895 3.125 11.25 3.96447 11.25 5V21.875C11.25 22.9105 12.0895 23.75 13.125 23.75H25C26.0355 23.75 26.875 22.9105 26.875 21.875V5C26.875 3.96447 26.0355 3.125 25 3.125Z" fill="#C92C2C"/>
<path d="M29.6025 18.7188L27.5 16.6163V3.125C27.5 2.46196 27.2366 1.82607 26.7678 1.35723C26.2989 0.888392 25.663 0.625 25 0.625H11.25C10.587 0.625 9.95107 0.888392 9.48223 1.35723C9.01339 1.82607 8.75 2.46196 8.75 3.125V21.875C8.75 22.538 9.01339 23.1739 9.48223 23.6428C9.95107 24.1116 10.587 24.375 11.25 24.375H15.0256C14.9723 24.7156 15.0023 25.0641 15.113 25.3906C15.2237 25.7172 15.4118 26.012 15.6613 26.25C15.3496 26.5532 15.1355 26.9426 15.0464 27.3682C14.9574 27.7938 14.9974 28.2363 15.1613 28.6391C15.3252 29.0418 15.6056 29.3865 15.9666 29.6289C16.3275 29.8714 16.7527 30.0006 17.1875 30H18.2406C18.2644 31.4676 18.8584 32.8683 19.8969 33.9056L20 34.0088V38.75C20 38.9158 20.0658 39.0747 20.1831 39.1919C20.3003 39.3092 20.4592 39.375 20.625 39.375H29.375C29.5408 39.375 29.6997 39.3092 29.8169 39.1919C29.9342 39.0747 30 38.9158 30 38.75V33.895C30.8201 32.1995 31.2473 30.3409 31.25 28.4575V22.6956C31.2521 21.9567 31.1075 21.2248 30.8247 20.5421C30.5419 19.8595 30.1265 19.2397 29.6025 18.7188ZM18.5138 28.1075C18.4471 28.3184 18.3926 28.5329 18.3506 28.75H17.1875C16.9389 28.75 16.7004 28.6512 16.5246 28.4754C16.3488 28.2996 16.25 28.0611 16.25 27.8125C16.25 27.5639 16.3488 27.3254 16.5246 27.1496C16.7004 26.9738 16.9389 26.875 17.1875 26.875H18.7338C18.7168 27.2939 18.6428 27.7086 18.5138 28.1075ZM18.75 25.625H17.1875C16.9389 25.625 16.7004 25.5262 16.5246 25.3504C16.3488 25.1746 16.25 24.9361 16.25 24.6875C16.2503 24.5807 16.27 24.4748 16.3081 24.375H18.75V25.625ZM18.75 23.125H11.25C10.9185 23.125 10.6005 22.9933 10.3661 22.7589C10.1317 22.5245 10 22.2065 10 21.875V3.125C10 2.79348 10.1317 2.47554 10.3661 2.24112C10.6005 2.0067 10.9185 1.875 11.25 1.875H25C25.3315 1.875 25.6495 2.0067 25.8839 2.24112C26.1183 2.47554 26.25 2.79348 26.25 3.125V21.875C26.25 22.2065 26.1183 22.5245 25.8839 22.7589C25.6495 22.9933 25.3315 23.125 25 23.125H23.75V20.625C23.75 19.962 23.4866 19.3261 23.0178 18.8572C22.5489 18.3884 21.913 18.125 21.25 18.125C20.587 18.125 19.9511 18.3884 19.4822 18.8572C19.0134 19.3261 18.75 19.962 18.75 20.625V23.125ZM30 28.455C29.997 30.1962 29.5905 31.9129 28.8125 33.4706C28.7703 33.5577 28.7489 33.6533 28.75 33.75V38.125H21.25V33.75C21.25 33.5843 21.1841 33.4253 21.0669 33.3081L20.7806 33.0219C20.1979 32.4425 19.7882 31.7121 19.5976 30.9128C19.4069 30.1135 19.4428 29.2769 19.7013 28.4969C19.8967 27.9103 19.9975 27.2964 20 26.6781V20.625C20 20.2935 20.1317 19.9755 20.3661 19.7411C20.6005 19.5067 20.9185 19.375 21.25 19.375C21.5815 19.375 21.8995 19.5067 22.1339 19.7411C22.3683 19.9755 22.5 20.2935 22.5 20.625V27.5C22.5 27.6658 22.5658 27.8247 22.6831 27.9419C22.8003 28.0592 22.9592 28.125 23.125 28.125C23.2908 28.125 23.4497 28.0592 23.5669 27.9419C23.6842 27.8247 23.75 27.6658 23.75 27.5V24.375H25C25.663 24.375 26.2989 24.1116 26.7678 23.6428C27.2366 23.1739 27.5 22.538 27.5 21.875V18.3837L28.7188 19.6025C29.1261 20.0078 29.4491 20.4899 29.6691 21.0208C29.889 21.5517 30.0015 22.121 30 22.6956V28.455Z" fill="white"/>
<path d="M29 38.5H21V35L20.5 33L19.5 31.5L19 30L18.5 29.5H17.5L16.5 29L16 27.5L16.5 26L16 25.5V24H19.5V20L20 19.5L21.5 19L23 20V23.5H26L27 22V17.5L29 19.5L30 21L30.5 22V29L30 31L29 34V38.5Z" fill="white"/>
</svg>
