<svg width="42" height="42" viewBox="0 0 42 42" fill="none" xmlns="http://www.w3.org/2000/svg">
<path d="M33.4258 4.06046C24.084 -2.78871 10.9171 -0.767647 4.06045 8.57418C-2.78872 17.916 -0.767631 31.0829 8.57419 37.9395C17.916 44.7887 31.0904 42.7676 37.9395 33.4258C44.7887 24.084 42.7677 10.9096 33.4258 4.06046ZM22.8189 3.57389C25.8131 3.88079 28.7699 4.95871 31.3673 6.8675C33.9648 8.77629 35.8811 11.2689 37.0787 14.0385L29.7729 16.374L22.7815 11.2465L22.8189 3.57389ZM21.03 14.2706L27.4075 18.949L24.9298 26.4644L17.0177 26.4269L14.6074 18.8891L21.03 14.2706ZM6.86004 10.6327C9.93655 6.44083 14.5326 4.02302 19.3382 3.55893L19.3008 11.2315L12.2645 16.2917L4.9737 13.8888C5.47522 12.7585 6.09653 11.6731 6.86004 10.6401V10.6327ZM3.8883 17.1899L11.1791 19.5927L13.8215 27.8492L9.27782 34.0396C4.48714 29.7355 2.55589 23.2307 3.8883 17.1899ZM12.0774 36.0981L16.621 29.9077L25.2892 29.9451L29.7729 36.173C24.4134 39.2645 17.6241 39.3767 12.0849 36.0981H12.0774ZM35.125 31.3748C34.369 32.4078 33.5157 33.336 32.5875 34.1519L28.1037 27.924L30.8209 19.69L38.1267 17.3546C39.1297 22.0779 38.2015 27.1905 35.1325 31.3823L35.125 31.3748Z" fill="white"/>
</svg>
