<svg width="151" height="61" viewBox="0 0 151 61" fill="none" xmlns="http://www.w3.org/2000/svg">
<path d="M0.675469 60V1.68H13.5635V51.288H26.9555V60H0.675469ZM48.3873 60.864C44.0193 60.864 40.5633 60.096 38.0193 58.56C35.4753 57.024 33.6513 54.816 32.5473 51.936C31.4433 49.056 30.8913 45.624 30.8913 41.64V19.968C30.8913 15.936 31.4433 12.504 32.5473 9.672C33.6513 6.84 35.4753 4.68 38.0193 3.192C40.5633 1.656 44.0193 0.887997 48.3873 0.887997C52.8033 0.887997 56.2833 1.656 58.8273 3.192C61.4193 4.68 63.2673 6.84 64.3713 9.672C65.4753 12.504 66.0273 15.936 66.0273 19.968V41.64C66.0273 45.624 65.4753 49.056 64.3713 51.936C63.2673 54.816 61.4193 57.024 58.8273 58.56C56.2833 60.096 52.8033 60.864 48.3873 60.864ZM48.3873 51.72C49.7313 51.72 50.7153 51.384 51.3393 50.712C51.9633 50.04 52.3713 49.176 52.5633 48.12C52.7553 47.064 52.8513 45.984 52.8513 44.88V16.8C52.8513 15.648 52.7553 14.568 52.5633 13.56C52.3713 12.504 51.9633 11.64 51.3393 10.968C50.7153 10.296 49.7313 9.96 48.3873 9.96C47.1393 9.96 46.2033 10.296 45.5793 10.968C44.9553 11.64 44.5473 12.504 44.3553 13.56C44.1633 14.568 44.0673 15.648 44.0673 16.8V44.88C44.0673 45.984 44.1393 47.064 44.2833 48.12C44.4753 49.176 44.8593 50.04 45.4353 50.712C46.0593 51.384 47.0433 51.72 48.3873 51.72ZM89.0628 60.864C85.0308 60.864 81.8388 60.024 79.4868 58.344C77.1828 56.664 75.5268 54.312 74.5188 51.288C73.5588 48.216 73.0788 44.688 73.0788 40.704V21.12C73.0788 16.992 73.6068 13.416 74.6628 10.392C75.7188 7.368 77.5188 5.04 80.0628 3.408C82.6548 1.728 86.1588 0.887997 90.5748 0.887997C94.8948 0.887997 98.2788 1.608 100.727 3.048C103.223 4.488 104.999 6.48 106.055 9.024C107.111 11.568 107.639 14.544 107.639 17.952V21.696H95.0388V16.944C95.0388 15.696 94.9428 14.544 94.7508 13.488C94.6068 12.432 94.2228 11.592 93.5988 10.968C93.0228 10.296 92.0628 9.96 90.7188 9.96C89.3268 9.96 88.3188 10.344 87.6948 11.112C87.0708 11.832 86.6628 12.744 86.4708 13.848C86.3268 14.952 86.2548 16.104 86.2548 17.304V44.304C86.2548 45.6 86.3748 46.824 86.6148 47.976C86.9028 49.08 87.3828 49.992 88.0548 50.712C88.7748 51.384 89.7828 51.72 91.0788 51.72C92.4228 51.72 93.4548 51.36 94.1748 50.64C94.8948 49.92 95.3988 48.984 95.6868 47.832C95.9748 46.68 96.1188 45.456 96.1188 44.16V37.32H90.8628V29.76H107.711V60H99.2148L98.4948 55.176C97.7268 56.808 96.5988 58.176 95.1108 59.28C93.6228 60.336 91.6068 60.864 89.0628 60.864ZM132.481 60.864C128.113 60.864 124.657 60.096 122.113 58.56C119.569 57.024 117.745 54.816 116.641 51.936C115.537 49.056 114.985 45.624 114.985 41.64V19.968C114.985 15.936 115.537 12.504 116.641 9.672C117.745 6.84 119.569 4.68 122.113 3.192C124.657 1.656 128.113 0.887997 132.481 0.887997C136.897 0.887997 140.377 1.656 142.921 3.192C145.513 4.68 147.361 6.84 148.465 9.672C149.569 12.504 150.121 15.936 150.121 19.968V41.64C150.121 45.624 149.569 49.056 148.465 51.936C147.361 54.816 145.513 57.024 142.921 58.56C140.377 60.096 136.897 60.864 132.481 60.864ZM132.481 51.72C133.825 51.72 134.809 51.384 135.433 50.712C136.057 50.04 136.465 49.176 136.657 48.12C136.849 47.064 136.945 45.984 136.945 44.88V16.8C136.945 15.648 136.849 14.568 136.657 13.56C136.465 12.504 136.057 11.64 135.433 10.968C134.809 10.296 133.825 9.96 132.481 9.96C131.233 9.96 130.297 10.296 129.673 10.968C129.049 11.64 128.641 12.504 128.449 13.56C128.257 14.568 128.161 15.648 128.161 16.8V44.88C128.161 45.984 128.233 47.064 128.377 48.12C128.569 49.176 128.953 50.04 129.529 50.712C130.153 51.384 131.137 51.72 132.481 51.72Z" fill="#069CDF"/>
</svg>
