<svg width="34" height="34" viewBox="0 0 34 34" fill="none" xmlns="http://www.w3.org/2000/svg">
<g clip-path="url(#clip0_89_69)">
<path d="M17 34C7.62539 34 0 26.3742 0 16.9991C0 7.62578 7.62539 0 17 0C19.3001 0 21.531 0.450709 23.629 1.34176C24.0676 1.52826 24.2731 2.03423 24.0866 2.47458C23.9002 2.9132 23.3942 3.1187 22.9539 2.9322C21.0717 2.13266 19.0669 1.72685 17 1.72685C8.57857 1.72685 1.72676 8.57728 1.72676 16.9991C1.72676 25.421 8.57857 32.2731 17 32.2731C25.4214 32.2731 32.2732 25.421 32.2732 16.9991C32.2732 15.129 31.94 13.3054 31.2838 11.5803C31.1146 11.1347 31.3373 10.6357 31.7828 10.4665C32.2283 10.2972 32.7274 10.52 32.8966 10.9655C33.6287 12.8875 34 14.9183 34 16.9991C34 26.3742 26.3729 34 17 34Z" fill="#103757"/>
<path d="M26.176 10.0485L23.168 6.92812C22.8365 6.58447 22.8468 6.03879 23.1905 5.70723C23.5341 5.37568 24.0797 5.38604 24.4113 5.72968L26.164 7.54806L31.7155 1.68021C32.0436 1.33311 32.5892 1.3193 32.9363 1.64567C33.2834 1.97378 33.2972 2.51946 32.9709 2.86656L26.176 10.0485Z" fill="#103757"/>
<path d="M24.584 25.4763C24.1246 25.4763 23.743 25.1154 23.7223 24.6508C23.6135 22.2142 23.0126 18.8797 19.0877 18.0577C18.6873 17.9742 18.4004 17.6213 18.4004 17.2123V16.918V16.4452C18.4004 16.1234 18.5795 15.8284 18.8649 15.6798C20.2014 14.9839 21.0303 13.6145 21.0303 12.1052C21.0303 9.88279 19.2224 8.07477 17 8.07477C14.7777 8.07477 12.9697 9.88279 12.9697 12.1052C12.9697 13.6473 13.8279 15.0323 15.2093 15.7178C15.5034 15.8638 15.6894 16.1638 15.6894 16.4921V17.3002C15.6894 17.6844 15.4352 18.0222 15.066 18.1285C10.8458 19.3459 10.3416 24.6318 10.3381 24.6836C10.2967 25.1585 9.87883 25.5108 9.40569 25.4711C8.93083 25.4314 8.57857 25.0152 8.61829 24.5403C8.63901 24.2899 9.14841 18.7519 13.6656 16.7988C12.153 15.7282 11.2447 13.9996 11.2447 12.1035C11.2447 8.92956 13.8279 6.34619 17.0017 6.34619C20.1755 6.34619 22.7588 8.92956 22.7588 12.1035C22.7588 13.9133 21.9213 15.5849 20.5209 16.6624C23.6032 17.7279 25.2591 20.3821 25.4473 24.5731C25.4681 25.0497 25.1003 25.4538 24.6237 25.4745C24.6099 25.4763 24.596 25.4763 24.584 25.4763Z" fill="#103757"/>
</g>
<defs>
<clipPath id="clip0_89_69">
<rect width="34" height="34" fill="white"/>
</clipPath>
</defs>
</svg>
